<?xml version="1.0" encoding="UTF-8" ?>
<!DOCTYPE svg PUBLIC "-//W3C//DTD SVG 1.1//EN" "http://www.w3.org/Graphics/SVG/1.1/DTD/svg11.dtd">
<svg width="1545pt" height="872pt" viewBox="0 0 1545 872" version="1.1" xmlns="http://www.w3.org/2000/svg">
<g id="#ffffffff">
</g>
<g id="#016997ff">
<path fill="#016997" opacity="1.00" d=" M 489.01 0.00 L 489.84 0.00 C 489.38 89.66 490.15 179.33 489.88 269.00 C 489.88 275.69 489.71 282.38 490.16 289.06 C 504.03 267.11 516.07 243.98 530.22 222.22 C 557.50 225.40 584.75 233.71 607.42 249.60 C 616.95 255.92 625.20 263.87 634.04 271.06 C 638.82 268.33 642.97 264.68 647.33 261.34 C 679.97 236.31 712.55 211.19 745.24 186.22 C 750.43 182.29 755.38 177.98 761.05 174.75 C 730.35 218.36 697.34 260.42 666.35 303.84 C 679.95 322.76 692.72 342.65 700.79 364.63 C 669.20 364.61 637.61 364.61 606.02 364.63 C 602.51 364.94 600.55 361.72 598.61 359.37 C 589.39 347.19 577.09 337.78 564.17 329.81 C 546.80 318.82 527.44 310.18 506.80 308.05 C 457.46 301.86 405.61 324.22 376.80 364.87 C 343.56 408.78 341.34 473.27 371.69 519.26 C 381.62 534.54 393.06 549.39 408.37 559.63 C 438.91 579.69 476.86 589.86 513.19 583.15 C 547.60 577.97 577.87 557.19 599.61 530.65 C 602.17 526.89 607.07 527.71 611.00 527.61 C 642.07 528.01 673.18 527.21 704.24 528.00 C 696.99 551.55 681.35 571.24 665.89 589.95 C 697.04 633.05 730.30 674.69 761.24 717.95 C 718.18 686.88 676.77 653.46 633.93 622.07 C 618.78 631.14 604.43 641.66 588.54 649.50 C 569.94 658.84 550.03 666.36 529.31 669.00 C 515.41 645.34 503.20 620.67 489.36 596.97 C 489.33 682.31 489.29 767.65 489.33 852.99 C 489.29 855.76 489.11 858.53 488.87 861.31 C 487.18 856.60 486.18 851.69 485.20 846.80 C 472.97 790.40 460.60 734.02 448.49 677.59 C 447.48 674.08 447.77 668.49 443.02 668.01 C 416.31 662.50 390.54 652.28 367.69 637.31 C 360.50 633.01 354.20 627.41 347.01 623.12 C 303.20 654.38 260.69 687.54 216.88 718.81 C 247.74 674.46 280.51 631.41 311.26 587.00 C 289.74 557.44 275.15 523.33 265.86 488.09 C 261.72 486.87 257.46 486.15 253.19 485.64 C 168.78 473.14 84.42 460.37 0.00 447.98 L 0.00 446.20 C 110.39 446.71 220.79 445.69 331.18 445.65 C 310.06 432.19 287.19 421.45 265.60 408.70 C 273.39 373.41 286.67 338.74 308.90 309.91 C 310.84 307.50 312.47 304.86 313.93 302.14 C 281.71 258.78 247.95 216.50 216.12 172.86 C 259.90 204.67 302.27 238.50 346.01 270.33 C 362.67 260.26 378.23 248.21 396.02 240.06 C 413.33 231.62 432.23 227.59 450.71 222.70 C 464.17 148.61 475.84 74.16 489.01 0.00 Z" />
<path fill="#016997" opacity="1.00" d=" M 432.98 417.03 C 440.99 416.91 449.00 416.84 457.01 417.07 C 461.79 430.16 466.34 443.34 471.04 456.45 C 475.74 443.61 479.58 430.41 484.69 417.75 C 489.55 415.83 495.47 417.34 500.74 417.20 C 505.03 430.56 509.70 443.80 514.33 457.04 C 518.26 443.51 523.59 430.44 528.07 417.08 C 536.01 416.83 543.95 416.88 551.89 417.09 C 543.13 439.34 534.64 461.70 526.05 484.02 C 518.75 484.05 511.45 484.17 504.16 483.91 C 500.34 472.82 496.89 461.55 492.36 450.73 C 487.82 461.61 485.23 473.46 479.77 483.85 C 472.82 484.50 465.81 483.87 458.84 484.10 C 449.91 461.86 441.45 439.44 432.98 417.03 Z" />
<path fill="#016997" opacity="1.00" d=" M 589.26 417.17 C 597.41 416.81 605.58 416.80 613.74 417.17 C 625.56 439.59 638.36 461.49 650.15 483.92 C 641.76 484.18 633.37 484.13 624.98 484.00 C 623.00 480.23 621.23 476.34 618.87 472.80 C 608.57 472.32 598.25 472.79 587.95 472.55 C 581.34 471.51 580.47 479.64 577.82 483.86 C 569.51 484.24 561.18 484.12 552.86 483.94 C 564.62 461.48 577.42 439.58 589.26 417.17 M 601.18 438.85 C 597.33 445.61 593.62 452.44 589.96 459.30 C 597.38 459.76 604.84 459.89 612.25 459.20 C 608.92 452.23 605.10 445.50 601.18 438.85 Z" />
<path fill="#016997" opacity="1.00" d=" M 651.79 417.13 C 661.43 417.03 671.14 416.46 680.75 417.29 C 687.65 422.72 692.39 430.45 699.03 436.23 C 704.17 430.33 709.50 424.60 714.65 418.71 C 716.37 416.41 719.47 417.04 721.97 416.88 C 729.73 417.00 737.50 416.78 745.27 417.14 C 735.14 428.06 724.92 438.88 714.48 449.49 C 712.56 451.64 709.81 453.73 710.08 456.95 C 709.95 465.96 710.18 474.99 710.00 484.01 C 702.27 484.11 694.53 484.10 686.80 483.99 C 686.50 475.00 686.80 466.00 686.68 457.00 C 686.90 453.59 683.95 451.37 681.96 449.05 C 671.78 438.52 661.84 427.77 651.79 417.13 Z" />
<path fill="#016997" opacity="1.00" d=" M 752.89 417.00 C 772.95 416.97 793.03 416.76 813.09 417.09 C 819.27 417.34 827.96 417.99 829.63 425.37 C 830.97 433.81 830.33 442.49 830.11 451.00 C 830.12 457.26 824.49 461.37 818.64 461.56 C 804.50 462.71 790.27 461.77 776.09 462.10 C 776.04 469.41 776.08 476.71 776.03 484.01 C 768.31 484.10 760.60 484.12 752.89 484.01 C 752.73 461.67 752.73 439.34 752.89 417.00 M 776.16 431.23 C 776.06 436.57 776.05 441.91 776.09 447.25 C 786.64 447.40 797.20 447.64 807.74 447.10 C 807.77 441.93 808.15 436.73 807.41 431.60 C 797.01 430.86 786.57 431.64 776.16 431.23 Z" />
<path fill="#016997" opacity="1.00" d=" M 852.33 417.30 C 872.15 415.92 892.13 417.00 912.01 416.71 C 918.63 416.55 927.60 418.46 928.63 426.35 C 930.14 437.81 928.94 449.46 929.34 461.00 C 929.18 467.42 930.12 474.63 926.20 480.19 C 922.59 483.93 916.87 484.09 912.01 484.34 C 894.34 484.33 876.67 484.31 859.00 484.35 C 854.27 484.16 848.92 484.11 845.11 480.90 C 840.82 476.42 841.35 469.72 841.35 464.00 C 841.63 452.14 840.97 440.26 841.62 428.42 C 841.88 422.55 846.35 417.60 852.33 417.30 M 864.79 431.81 C 864.55 444.12 864.39 456.46 864.89 468.77 C 878.53 468.84 892.18 468.75 905.82 468.81 C 906.01 456.50 905.97 444.18 905.84 431.87 C 892.17 431.42 878.47 431.52 864.79 431.81 Z" />
<path fill="#016997" opacity="1.00" d=" M 941.88 417.02 C 949.62 416.89 957.37 416.91 965.12 416.99 C 965.26 439.33 965.28 461.67 965.11 484.01 C 957.36 484.10 949.62 484.11 941.87 484.02 C 941.74 461.69 941.71 439.35 941.88 417.02 Z" />
<path fill="#016997" opacity="1.00" d=" M 978.90 417.00 C 986.35 417.76 995.65 414.27 1001.41 420.60 C 1015.25 432.83 1029.51 444.59 1043.15 457.05 C 1042.72 443.71 1042.68 430.35 1042.89 417.00 C 1050.33 416.88 1057.77 416.92 1065.21 416.99 C 1065.41 439.33 1065.40 461.68 1065.21 484.02 C 1057.96 483.25 1049.03 486.60 1043.27 480.77 C 1029.34 468.44 1015.00 456.57 1001.20 444.09 C 1001.46 457.39 1001.50 470.70 1001.27 484.01 C 993.81 484.11 986.35 484.11 978.90 484.03 C 978.75 461.69 978.72 439.34 978.90 417.00 Z" />
<path fill="#016997" opacity="1.00" d=" M 1073.63 416.91 C 1100.16 417.02 1126.69 416.83 1153.21 417.00 C 1153.37 422.04 1153.37 427.07 1153.21 432.11 C 1143.87 432.28 1134.54 432.20 1125.21 432.20 C 1125.15 449.47 1125.33 466.74 1125.11 484.01 C 1117.37 484.10 1109.62 484.12 1101.88 484.02 C 1101.68 466.74 1101.82 449.47 1101.80 432.20 C 1092.28 432.15 1082.76 432.44 1073.26 431.95 C 1073.34 426.93 1073.36 421.92 1073.63 416.91 Z" />
<path fill="#016997" opacity="1.00" d=" M 727.39 511.38 C 732.92 509.01 739.10 509.16 745.01 508.92 C 762.41 508.97 779.81 508.86 797.21 508.98 C 797.36 513.71 797.36 518.46 797.20 523.20 C 779.93 523.65 762.63 522.96 745.37 523.51 C 744.03 527.10 744.70 530.96 745.14 534.66 C 757.76 534.68 770.37 534.66 783.00 534.66 C 787.78 534.87 793.13 534.88 797.12 537.92 C 800.79 541.53 800.66 547.14 801.04 551.93 C 801.04 558.20 801.31 564.86 798.75 570.73 C 795.33 575.71 788.47 575.57 783.07 576.00 C 762.68 576.14 742.28 576.07 721.89 576.00 C 721.77 570.96 721.77 565.92 721.90 560.89 C 739.27 560.67 756.65 560.82 774.02 560.82 C 780.33 561.15 777.03 552.57 777.29 548.70 C 763.86 548.48 750.44 548.73 737.02 548.59 C 732.09 548.29 725.73 547.59 723.43 542.47 C 721.05 536.63 721.84 530.12 721.82 523.96 C 722.04 519.39 722.69 513.57 727.39 511.38 Z" />
<path fill="#016997" opacity="1.00" d=" M 823.32 509.30 C 837.82 507.93 852.45 509.02 867.00 508.68 C 875.78 509.06 884.95 507.51 893.41 510.49 C 898.60 512.18 900.05 518.12 900.21 522.96 C 900.53 534.30 900.20 545.65 900.36 556.99 C 900.29 562.33 900.42 568.42 896.73 572.73 C 892.97 575.93 887.70 576.18 883.00 576.35 C 865.33 576.32 847.67 576.32 830.00 576.34 C 825.27 576.15 819.92 576.10 816.11 572.89 C 811.82 568.41 812.35 561.72 812.35 556.00 C 812.69 543.88 811.84 531.71 812.73 519.63 C 813.06 513.94 817.73 509.67 823.32 509.30 M 835.80 523.80 C 835.55 536.12 835.39 548.46 835.89 560.77 C 849.54 560.82 863.19 560.76 876.85 560.81 C 877.00 548.49 876.98 536.18 876.84 523.86 C 863.17 523.42 849.47 523.52 835.80 523.80 Z" />
<path fill="#016997" opacity="1.00" d=" M 912.92 509.01 C 937.96 508.86 963.00 508.91 988.04 508.98 C 988.15 513.99 988.16 519.00 988.07 524.01 C 970.77 524.15 953.46 524.01 936.16 524.12 C 936.21 528.03 936.21 531.95 936.17 535.88 C 947.51 535.99 958.86 535.84 970.21 535.99 C 970.41 540.90 970.38 545.82 970.07 550.73 C 958.77 550.56 947.47 550.49 936.18 550.78 C 936.22 559.18 936.29 567.59 936.11 575.99 C 928.37 576.08 920.64 576.08 912.90 576.02 C 912.71 553.68 912.70 531.34 912.92 509.01 Z" />
<path fill="#016997" opacity="1.00" d=" M 990.25 509.14 C 1016.89 508.72 1043.55 508.98 1070.20 508.99 C 1070.37 514.03 1070.37 519.07 1070.21 524.12 C 1060.87 524.27 1051.53 524.20 1042.20 524.18 C 1042.16 541.45 1042.32 558.72 1042.12 575.99 C 1034.37 576.08 1026.63 576.09 1018.89 576.00 C 1018.67 558.72 1018.82 541.45 1018.81 524.17 C 1009.29 524.13 999.76 524.44 990.26 523.95 C 990.43 519.01 990.43 514.07 990.25 509.14 Z" />
<path fill="#016997" opacity="1.00" d=" M 1071.96 509.04 C 1079.98 508.90 1088.00 508.85 1096.02 509.07 C 1100.76 522.17 1105.41 535.31 1110.05 548.45 C 1114.91 535.38 1118.60 521.84 1124.08 509.03 C 1129.28 508.73 1134.50 508.91 1139.70 509.20 C 1144.07 522.54 1148.68 535.80 1153.32 549.04 C 1157.26 535.50 1162.59 522.42 1167.08 509.07 C 1175.01 508.82 1182.95 508.89 1190.89 509.10 C 1182.08 531.32 1173.69 553.71 1165.05 576.01 C 1157.75 576.07 1150.45 576.15 1143.16 575.89 C 1139.48 564.78 1135.62 553.73 1131.64 542.74 C 1127.15 552.91 1124.14 563.66 1120.07 573.99 C 1119.66 575.38 1118.45 576.23 1117.01 576.02 C 1110.70 576.19 1104.38 576.13 1098.07 575.95 C 1088.56 554.02 1080.65 531.33 1071.96 509.04 Z" />
<path fill="#016997" opacity="1.00" d=" M 1228.26 509.17 C 1236.41 508.79 1244.58 508.81 1252.74 509.16 C 1264.55 531.58 1277.38 553.46 1289.13 575.91 C 1280.74 576.14 1272.35 576.09 1263.97 576.00 C 1261.98 572.24 1260.22 568.35 1257.86 564.80 C 1246.33 564.56 1234.72 564.30 1223.22 564.91 C 1219.90 567.48 1218.88 572.22 1216.81 575.83 C 1208.50 576.23 1200.17 576.09 1191.86 575.89 C 1203.66 553.47 1216.41 531.56 1228.26 509.17 M 1239.60 531.15 C 1236.34 538.02 1232.50 544.57 1228.98 551.30 C 1236.35 551.86 1243.76 551.56 1251.16 551.59 C 1247.81 544.61 1244.84 536.78 1239.60 531.15 Z" />
<path fill="#016997" opacity="1.00" d=" M 1296.92 509.00 C 1316.96 508.97 1337.02 508.73 1357.07 509.10 C 1362.95 509.70 1371.66 509.39 1373.67 516.43 C 1375.75 525.69 1375.55 535.51 1374.00 544.85 C 1372.73 551.42 1365.16 552.01 1359.85 553.08 C 1365.86 561.05 1373.22 567.90 1379.24 575.87 C 1371.47 576.13 1363.69 576.15 1355.92 576.04 C 1351.47 576.43 1349.52 571.77 1346.95 569.04 C 1342.37 563.89 1338.51 558.06 1333.49 553.34 C 1329.33 551.70 1324.52 552.89 1320.11 552.78 C 1320.06 560.51 1320.13 568.25 1320.00 575.98 C 1312.30 576.06 1304.59 576.10 1296.89 576.00 C 1296.74 553.67 1296.70 531.33 1296.92 509.00 M 1320.16 523.23 C 1320.07 528.24 1320.06 533.24 1320.10 538.25 C 1330.68 538.42 1341.27 538.59 1351.84 538.14 C 1351.89 533.25 1352.27 528.34 1351.54 523.48 C 1341.08 523.00 1330.61 523.57 1320.16 523.23 Z" />
<path fill="#016997" opacity="1.00" d=" M 1386.88 509.02 C 1411.83 508.97 1436.79 508.72 1461.75 509.13 C 1461.57 513.99 1461.56 518.85 1461.71 523.71 C 1444.51 523.57 1427.30 523.50 1410.10 523.75 C 1410.10 527.44 1410.10 531.13 1410.12 534.82 C 1421.45 534.80 1432.79 534.73 1444.13 534.88 C 1444.22 539.32 1444.20 543.76 1444.10 548.21 C 1432.78 548.42 1421.47 548.37 1410.16 548.23 C 1410.10 552.45 1410.08 556.66 1410.09 560.88 C 1427.46 561.00 1444.83 560.88 1462.21 560.98 C 1462.36 565.97 1462.36 570.97 1462.21 575.97 C 1437.10 576.13 1411.99 576.10 1386.88 575.99 C 1386.72 553.66 1386.75 531.34 1386.88 509.02 Z" />
</g>
<g id="#515151ff">
<path fill="#515151" opacity="1.00" d=" M 1470.71 475.01 C 1475.48 474.99 1480.26 474.99 1485.04 474.98 C 1484.99 478.24 1484.94 481.49 1484.87 484.75 C 1480.21 484.57 1475.54 484.57 1470.89 484.75 C 1470.76 481.50 1470.70 478.25 1470.71 475.01 Z" />
<path fill="#515151" opacity="1.00" d=" M 1470.77 489.02 C 1475.51 488.99 1480.26 488.98 1485.01 488.99 C 1485.01 500.66 1484.99 512.33 1485.01 524.01 C 1480.26 524.01 1475.52 524.00 1470.78 523.98 C 1470.60 512.33 1470.61 500.67 1470.77 489.02 Z" />
<path fill="#515151" opacity="1.00" d=" M 1498.45 489.45 C 1506.15 487.75 1514.16 489.10 1522.00 488.62 C 1526.95 488.62 1534.04 488.38 1536.11 494.03 C 1537.84 500.20 1536.78 506.74 1537.03 513.07 C 1537.20 517.55 1535.48 523.97 1530.01 524.08 C 1520.01 524.55 1509.96 524.41 1499.96 524.14 C 1495.59 524.45 1493.06 519.86 1493.06 516.03 C 1492.89 509.68 1492.89 503.31 1493.06 496.96 C 1492.98 493.60 1495.29 490.51 1498.45 489.45 M 1508.00 499.01 C 1507.97 503.96 1507.99 508.92 1508.04 513.88 C 1512.67 513.79 1517.30 513.78 1521.94 513.85 C 1521.99 508.90 1522.00 503.95 1521.99 499.00 C 1517.32 499.00 1512.66 499.00 1508.00 499.01 Z" />
</g>
</svg>
